<svg width="64" height="64" viewBox="0 0 64 64" fill="none" xmlns="http://www.w3.org/2000/svg">
<g clip-path="url(#clip0_1121_241)">
<mask id="mask0_1121_241" style="mask-type:luminance" maskUnits="userSpaceOnUse" x="0" y="0" width="64" height="64">
<path d="M64 0H0V64H64V0Z" fill="white"/>
</mask>
<g mask="url(#mask0_1121_241)">
<mask id="mask1_1121_241" style="mask-type:luminance" maskUnits="userSpaceOnUse" x="0" y="0" width="64" height="64">
<path d="M64 0H0V64H64V0Z" fill="white"/>
</mask>
<g mask="url(#mask1_1121_241)">
<path d="M8.00003 60.6305L8.00122 23.2548L43.4517 2.78589L43.4505 40.1617L8.00003 60.6305Z" fill="#FBDBD0"/>
<path d="M17.2497 12.5757L15.708 13.4658L15.7078 21.4766L17.2494 20.5865L17.2497 12.5757Z" fill="#FBDBD0"/>
<path d="M34.2043 2.78589L32.6626 3.67603L32.6623 11.6868L34.204 10.7967L34.2043 2.78589Z" fill="#FBDBD0"/>
<path d="M43.4513 11.6851L8.00088 32.1539L8.00082 33.9337L43.4513 13.4649V11.6851Z" fill="#FBDBD0"/>
<path d="M18.7914 32.1526L12.6248 35.7131L12.6246 42.8339L18.7912 39.2733L18.7914 32.1526Z" fill="#FBDBD0"/>
<path d="M28.8099 26.3682L22.6433 29.9287L22.6431 37.0494L28.8097 33.4889L28.8099 26.3682Z" fill="#FBDBD0"/>
<path d="M38.8285 20.5835L32.6619 24.144L32.6617 31.2648L38.8283 27.7042L38.8285 20.5835Z" fill="#FBDBD0"/>
<path d="M18.791 42.8318L12.6244 46.3923L12.6242 53.5131L18.7908 49.9525L18.791 42.8318Z" fill="#FBDBD0"/>
<path d="M28.8096 37.0474L22.643 40.6079L22.6428 47.7286L28.8094 44.1681L28.8096 37.0474Z" fill="#FBDBD0"/>
<path d="M38.8282 31.2625L32.6616 34.8231L32.6614 41.9438L38.828 38.3833L38.8282 31.2625Z" fill="#FBDBD0"/>
<path d="M17.8206 19.5225L10.1149 23.9592L8.00467 23.2534L15.7051 18.807V13.467L17.8206 14.1767V19.5225Z" fill="#FBDBD0"/>
<path d="M8 23.2537L10.1149 23.9629V61.3411L8 60.6362V23.2537Z" fill="#FBDBD0"/>
<path d="M10.1149 61.3402L10.1161 23.9645L45.5666 3.49561L45.5654 40.8714L10.1149 61.3402Z" fill="white"/>
<path d="M19.3648 13.2854L17.8231 14.1755L17.8229 22.1863L19.3645 21.2962L19.3648 13.2854Z" fill="#C1DBF6"/>
<path d="M36.3192 3.49561L34.7775 4.38575L34.7772 12.3966L36.3189 11.5064L36.3192 3.49561Z" fill="#C1DBF6"/>
<path d="M45.5663 12.395L10.1158 32.8639V34.6437L45.5662 14.1748L45.5663 12.395Z" fill="#374874"/>
<path d="M20.9062 32.8625L14.7396 36.4231L14.7394 43.5438L20.906 39.9833L20.9062 32.8625Z" fill="#C1DBF6"/>
<path d="M30.9248 27.0779L24.7582 30.6384L24.758 37.7591L30.9246 34.1986L30.9248 27.0779Z" fill="#C1DBF6"/>
<path d="M40.9434 21.2935L34.7768 24.8541L34.7766 31.9748L40.9432 28.4143L40.9434 21.2935Z" fill="#C1DBF6"/>
<path d="M20.9059 43.5413L14.7393 47.1019L14.7391 54.2226L20.9057 50.6621L20.9059 43.5413Z" fill="#C1DBF6"/>
<path d="M30.9245 37.7568L24.7579 41.3174L24.7577 48.4381L30.9243 44.8775L30.9245 37.7568Z" fill="#C1DBF6"/>
<path d="M40.9431 31.9719L34.7765 35.5325L34.7763 42.6532L40.9429 39.0926L40.9431 31.9719Z" fill="#C1DBF6"/>
<path d="M34.7776 9.72307L19.3658 18.6232V16.6933L32.6604 9.01732V3.67725L34.7776 4.38995V9.72307Z" fill="#FBDBD0"/>
<path d="M17.8226 14.1763L15.7086 13.4671L17.2593 12.5735L19.3628 13.2863L17.8226 14.1763Z" fill="#FBDBD0"/>
<path d="M34.774 4.38668L32.667 3.67739L34.2003 2.79077L36.3194 3.49333L34.774 4.38668Z" fill="#FBDBD0"/>
<path d="M36.3138 8.833V6.91049L43.4476 2.78735L45.5648 3.49656L36.3138 8.833Z" fill="#FBDBD0"/>
<path d="M46.6498 52.8704C52.3321 49.5895 56.9386 41.6106 56.9389 35.0491C56.9391 28.4877 52.3328 25.8283 46.6505 29.1092C40.9682 32.3901 36.3616 40.3689 36.3614 46.9304C36.3612 53.4919 40.9675 56.1513 46.6498 52.8704Z" fill="white"/>
<path d="M41.2713 44.6832L44.2713 46.4152C44.5153 46.5561 44.6373 46.6265 44.778 46.5981C44.9018 46.573 45.0351 46.4961 45.1588 46.3782C45.2995 46.2442 45.4215 46.0328 45.6656 45.6101L52.363 34.0098" stroke="#C1DBF6" stroke-width="1.58423" stroke-linecap="round" stroke-linejoin="round"/>
<path d="M44.8633 51.9966C50.5456 48.7157 55.1521 40.7368 55.1524 34.1754C55.1526 27.6139 50.5463 24.9545 44.864 28.2354C39.1817 31.5163 34.5751 39.4952 34.5749 46.0566C34.5747 52.6181 39.181 55.2775 44.8633 51.9966Z" fill="#FBDBD0"/>
<path d="M35.7449 50.885C36.5915 52.4906 39.0392 53.6769 40.4913 54.0648C37.8454 53.358 36.8418 50.5709 36.5915 49.3159C35.6598 44.6458 37.707 39.7741 39.0241 37.4053C42.0338 31.9924 45.3254 29.8828 47.2292 28.8053C51.4252 26.699 53.327 28.1658 54.3535 28.6627C53.0516 27.7924 51.8365 27.3103 51.1907 27.0859C45.3309 25.3798 39.3738 32.4068 37.1856 36.638C33.257 44.2331 34.6111 49.1652 35.7449 50.885Z" fill="#FBDBD0"/>
<path d="M46.6498 52.8704C52.3321 49.5895 56.9386 41.6106 56.9389 35.0491C56.9391 28.4877 52.3328 25.8283 46.6505 29.1092C40.9682 32.3901 36.3616 40.3689 36.3614 46.9304C36.3612 53.4919 40.9675 56.1513 46.6498 52.8704Z" fill="white"/>
<path d="M41.2713 44.6832L44.2713 46.4152C44.5153 46.5561 44.6373 46.6265 44.778 46.5981C44.9018 46.573 45.0351 46.4961 45.1588 46.3782C45.2995 46.2442 45.4215 46.0328 45.6656 45.6101L52.363 34.0098" stroke="#374874" stroke-width="2" stroke-linecap="round" stroke-linejoin="round"/>
<path d="M15.2996 14.0465L15.303 18.5777L8.79964 22.334C8.05729 22.7627 7.60001 23.5549 7.60001 24.4122V59.9137C7.60001 60.5151 7.98418 61.0494 8.55435 61.2408L9.56217 61.5793C9.94288 61.7071 10.3601 61.6653 10.7079 61.4645L34.3011 47.8403C34.4184 48.7009 34.6418 49.7959 35.2806 50.876C36.0814 52.2301 37.5085 53.5209 40.0835 54.3557C42.1415 55.0704 47.086 54.6552 51.995 48.6932C52.9763 47.5257 54.4196 45.4351 55.5584 42.846C56.6972 40.2566 57.4927 37.1809 57.2933 33.9415C57.0944 31.6613 56.3584 29.5226 53.8004 27.8562C51.8929 26.6503 49.0226 25.8268 45.9677 27.1836V4.22016C45.9677 3.62103 45.5865 3.0883 45.0194 2.89502L44.0041 2.54898C43.6218 2.41867 43.2018 2.45984 42.8521 2.66191L36.7125 6.20914V4.21635C36.7125 3.61708 36.3311 3.08428 35.7638 2.89109L34.7598 2.54918C34.3739 2.41775 33.9499 2.46107 33.5986 2.6678L32.9401 3.05525C32.5125 3.30681 32.25 3.76583 32.25 4.26188V8.78857L19.7656 15.9997V14.0049C19.7656 13.4056 19.3841 12.8727 18.8167 12.6796L17.8124 12.3378C17.4302 12.2077 17.0104 12.2489 16.6608 12.451L15.9992 12.8333C15.5659 13.0837 15.2993 13.5462 15.2996 14.0465Z" stroke="#374874" stroke-width="0.8"/>
</g>
</g>
</g>
<defs>
<clipPath id="clip0_1121_241">
<rect width="64" height="64" fill="white"/>
</clipPath>
</defs>
</svg>
